# xmcd
#
# Track frame offsets:
#	150
#	19555
#	36280
#	55255
#	68752
#	83604
#	102682
#	117607
#	133180
#	150935
#	165120
#	180682
#	193960
#	212695
#	229057
#	244905
#	262517
#	277902
#	291450
#	307225
#	323202
#
# Disc length: 4479 seconds
#
# Revision: 2
# Processed by: cddbd v1.5.2PL0 Copyright (c) Steve Scherf et al.
# Submitted via: audiograbber 1.80.04
#
DISCID=2b117d15
DTITLE=Forró da Brucelose and Gilson Neto - Volume 4
DYEAR=1998
DGENRE=Forró
TTITLE0=Sei Que Vou Te Amar
TTITLE1=Paixão Envolvente
TTITLE2=Te Amo Demais
TTITLE3=Te Amo, Te Quero, Te Adoro
TTITLE4=Porque Brigamos
TTITLE5=Uma Noite de Amor
TTITLE6=Paixão e Desejo
TTITLE7=Coração de Vaqueiro
TTITLE8=Ardendo de Paixão
TTITLE9=Nada Acabou
TTITLE10=Só Com Você
TTITLE11=No Coice da Boiada
TTITLE12=Foi No Baile
TTITLE13=Vem Amor
TTITLE14=Se Uma Lágrima Rolar II
TTITLE15=Mais Que Uma Paixão
TTITLE16=Me Liga
TTITLE17=Brucelando No Clube do Vaqueiro
TTITLE18=Aboio Nordestino
TTITLE19=Pra Sempre Se Amar
TTITLE20=Pelos 7 Segredos (3x7=21)
EXTD=dayvisondj@hotmail.com\nDayvison DJ Is Of Recife - PE - Brazil\n8690-4073
EXTT0=
EXTT1=
EXTT2=
EXTT3=
EXTT4=
EXTT5=
EXTT6=
EXTT7=
EXTT8=
EXTT9=
EXTT10=
EXTT11=
EXTT12=
EXTT13=
EXTT14=
EXTT15=
EXTT16=
EXTT17=
EXTT18=
EXTT19=
EXTT20=
PLAYORDER=
